<?xml version="1.0" encoding="UTF-8"?>
<svg version="1.1" xmlns="http://www.w3.org/2000/svg" width="1024" height="1024">
<path d="M0 0 C5.80985405 0.01774989 11.61959132 0.01692467 17.4294641 0.01142079 C23.86181799 0.00565074 30.29411274 0.01144844 36.72645807 0.02259433 C39.40035982 0.02712012 42.07416401 0.02762488 44.74807978 0.02600849 C90.31836795 0.02138904 90.31836795 0.02138904 100.24169397 3.32916439 C100.24169397 146.21916439 100.24169397 289.10916439 100.24169397 436.32916439 C80.24169397 435.32916439 80.24169397 435.32916439 73.15404749 434.7793597 C61.6702301 433.99173932 50.14927582 434.14345751 38.64403772 434.12603939 C36.73340634 434.12179832 36.73340634 434.12179832 34.78417635 434.11747158 C28.71543123 434.10406745 22.64670476 434.09415708 16.57794613 434.09026968 C10.37896042 434.08627173 4.18012967 434.07412233 -2.01880407 434.04791439 C-31.47118338 433.92601065 -60.72687848 433.99025633 -90.05344152 436.97128475 C-95.98846146 437.54459122 -101.93444099 437.93175875 -107.88330603 438.32916439 C-130.21031322 439.95358573 -152.38202564 442.67121345 -174.53467321 445.86480892 C-177.38177602 446.27492627 -180.22992938 446.6763541 -183.07861853 447.07525814 C-193.61441662 448.57615319 -204.06726135 450.44526889 -214.52441931 452.41827571 C-220.07896247 453.46620606 -225.6340574 454.49187886 -231.20752478 455.43463314 C-232.22870398 455.60744808 -233.24988317 455.78026302 -234.3020072 455.95831478 C-236.19592357 456.27597471 -238.09056475 456.5893608 -239.98608923 456.89727962 C-245.47194541 457.819354 -250.7494578 459.1033804 -256.10156775 460.6152972 C-260.05350774 461.67718587 -264.04845988 462.40305326 -268.07080603 463.14166439 C-277.06150171 464.87370793 -285.82723652 467.14689259 -294.63721228 469.62603939 C-299.15330941 470.89598061 -303.68271986 472.10229717 -308.22314978 473.28228939 C-320.36464902 476.44100394 -332.39120121 479.64263414 -344.15674353 484.03228939 C-347.70280981 485.30918093 -351.24620689 486.34529278 -354.88330603 487.32916439 C-360.40249771 488.85213404 -365.65393562 490.79116614 -370.93579626 492.97540462 C-375.72048108 494.94593198 -380.55546904 496.70184962 -385.44580603 498.39166439 C-392.33610103 500.78695357 -399.0547108 503.44834536 -405.75830603 506.32916439 C-408.29119388 507.39843112 -410.82572193 508.46375308 -413.36035681 509.52887142 C-417.16090725 511.1260417 -420.95958077 512.72765907 -424.75830603 514.32916439 C-417.05292956 518.33780851 -409.39079706 522.02514505 -401.23096228 525.04010189 C-398.15390412 526.18231695 -395.10876216 527.38730622 -392.06323767 528.61041439 C-370.97326852 537.01430386 -349.27482747 544.13952439 -327.496099 550.52301204 C-324.70560008 551.34468383 -321.92126549 552.1851524 -319.13721228 553.02838314 C-294.33167812 560.48138353 -269.16096584 566.48447944 -243.79736853 571.70172298 C-241.0941654 572.25982324 -238.39465253 572.83248398 -235.69580603 573.41119564 C-223.86716884 575.90772872 -211.94800974 577.77671475 -199.99756384 579.57940853 C-188.92327049 581.25613705 -188.92327049 581.25613705 -183.85986853 582.35260189 C-176.55873413 583.75021567 -169.14108914 584.46060167 -161.75830603 585.32916439 C-137.50330603 588.29916439 -137.50330603 588.29916439 -112.75830603 591.32916439 C-112.75830603 734.21916439 -112.75830603 877.10916439 -112.75830603 1024.32916439 C-125.05061372 1024.32916439 -125.05061372 1024.32916439 -130.75830603 1023.45416439 C-136.41878695 1022.6381878 -142.06801953 1021.96081161 -147.75830603 1021.39166439 C-178.07785874 1018.28512758 -208.18467742 1013.32495438 -238.06055212 1007.33184993 C-240.25729169 1006.89186755 -242.45501409 1006.45705671 -244.65283728 1006.02252376 C-267.71630206 1001.4309595 -290.80161757 996.01042032 -313.34814978 989.33307064 C-315.96019822 988.56411708 -318.5738754 987.82545444 -321.19971228 987.10650814 C-352.96646756 978.34738499 -384.43595835 967.22722249 -414.75830603 954.32916439 C-416.86243791 953.47491204 -418.96660217 952.62073944 -421.07080603 951.76666439 C-425.93051249 949.73740858 -430.6132487 947.45196564 -435.30127478 945.05572689 C-438.72918248 943.3437097 -442.18806352 941.71958276 -445.66235876 940.10479915 C-453.53143482 936.44044232 -461.14012242 932.55906683 -468.62549353 928.16510189 C-471.51612376 926.47109165 -474.43362505 924.85495414 -477.38330603 923.26666439 C-486.25121914 918.4519168 -494.90858119 913.29270922 -503.50830603 908.01666439 C-504.22462194 907.58386165 -504.94093786 907.15105892 -505.67896032 906.70514095 C-507.40737277 905.63481991 -509.08825891 904.48844836 -510.75830603 903.32916439 C-510.75830603 902.66916439 -510.75830603 902.00916439 -510.75830603 901.32916439 C-511.56268103 901.20541439 -511.56268103 901.20541439 -512.38330603 901.07916439 C-515.63171294 900.05335168 -518.04582461 898.36352545 -520.75830603 896.32916439 C-520.75830603 895.66916439 -520.75830603 895.00916439 -520.75830603 894.32916439 C-522.07830603 893.99916439 -523.39830603 893.66916439 -524.75830603 893.32916439 C-524.75830603 892.66916439 -524.75830603 892.00916439 -524.75830603 891.32916439 C-525.48404821 891.07135189 -526.2097904 890.81353939 -526.95752478 890.54791439 C-529.87878269 889.27673939 -532.06703251 887.78900037 -534.57080603 885.82916439 C-535.36100134 885.22072689 -536.15119665 884.61228939 -536.96533728 883.98541439 C-537.55701696 883.43885189 -538.14869665 882.89228939 -538.75830603 882.32916439 C-538.75830603 881.66916439 -538.75830603 881.00916439 -538.75830603 880.32916439 C-539.74830603 880.32916439 -540.73830603 880.32916439 -541.75830603 880.32916439 C-543.48190139 878.72144098 -545.13957192 877.04242311 -546.75830603 875.32916439 C-548.17131584 874.02776043 -549.58474589 872.72676071 -551.0075736 871.43609798 C-576.76678802 848.04642555 -576.76678802 848.04642555 -583.75830603 837.32916439 C-583.75830603 836.66916439 -583.75830603 836.00916439 -583.75830603 835.32916439 C-584.41830603 835.32916439 -585.07830603 835.32916439 -585.75830603 835.32916439 C-587.57681765 832.92559263 -589.27599312 830.52096399 -590.94580603 828.01666439 C-591.44265905 827.27827327 -591.93951208 826.53988216 -592.45142126 825.77911556 C-593.44534952 824.297673 -594.43604599 822.81405657 -595.42334509 821.32818782 C-596.49374642 819.72532643 -597.58718542 818.13785999 -598.68799353 816.55572689 C-606.82543108 804.52477855 -613.50986872 790.21652935 -617.75830603 776.32916439 C-618.01869665 775.50416439 -618.27908728 774.67916439 -618.54736853 773.82916439 C-622.75895607 759.53529151 -624.31722143 745.3533101 -624.19580603 730.51666439 C-624.19309698 729.7340121 -624.19038794 728.95135982 -624.1875968 728.1449908 C-624.09978346 711.3658058 -621.66268408 696.31151243 -615.71143103 680.59088314 C-614.03622299 674.85810152 -614.38638039 670.66944249 -616.90283728 665.30572689 C-623.28684001 650.555474 -624.32925135 633.36958781 -624.19580603 617.51666439 C-624.19243231 616.73201808 -624.18905859 615.94737178 -624.18558264 615.13894832 C-624.10906181 602.81314863 -623.30128723 591.20143664 -619.75830603 579.32916439 C-619.51692907 578.48966243 -619.27555212 577.65016048 -619.02686071 576.78521907 C-613.29474315 557.20949682 -604.86651684 539.10761841 -592.78955603 522.64557064 C-592.22236853 521.86053157 -591.65518103 521.07549251 -591.07080603 520.26666439 C-590.32250525 519.29019954 -590.32250525 519.29019954 -589.55908728 518.29400814 C-588.51077136 516.28412524 -588.51077136 516.28412524 -589.39502478 513.90338314 C-590.84284585 511.16953189 -592.448003 508.71250799 -594.25830603 506.20416439 C-594.86674353 505.35596126 -595.47518103 504.50775814 -596.10205603 503.63385189 C-596.64861853 502.87330501 -597.19518103 502.11275814 -597.75830603 501.32916439 C-599.75830603 498.32916439 -599.75830603 498.32916439 -599.75830603 495.32916439 C-600.41830603 495.32916439 -601.07830603 495.32916439 -601.75830603 495.32916439 C-603.21893453 492.68177522 -603.75830603 491.43468104 -603.75830603 488.32916439 C-604.41830603 488.32916439 -605.07830603 488.32916439 -605.75830603 488.32916439 C-616.72810027 463.50996009 -616.72810027 463.50996009 -619.75830603 452.32916439 C-619.95295446 451.63113704 -620.1476029 450.9331097 -620.34814978 450.21393001 C-627.41645532 423.67313566 -626.33479112 391.70863912 -616.68799353 365.99713314 C-616.22779821 364.6764886 -616.22779821 364.6764886 -615.75830603 363.32916439 C-615.54254919 362.73144222 -615.32679235 362.13372005 -615.10449743 361.51788509 C-613.34492376 355.90573513 -614.22656771 352.48991524 -616.38330603 347.14166439 C-626.03228684 320.29244695 -627.59206321 288.89649592 -619.75830603 261.32916439 C-619.30777868 259.60246517 -619.30777868 259.60246517 -618.84814978 257.84088314 C-612.09199203 233.88723293 -599.6943738 212.98787454 -584.75830603 193.32916439 C-584.21561071 192.5518597 -583.6729154 191.77455501 -583.11377478 190.97369564 C-582.66647009 190.43100032 -582.2191654 189.88830501 -581.75830603 189.32916439 C-581.09830603 189.32916439 -580.43830603 189.32916439 -579.75830603 189.32916439 C-579.69643103 188.77228939 -579.63455603 188.21541439 -579.57080603 187.64166439 C-578.40364091 184.31973291 -576.32595017 182.72935348 -573.75830603 180.32916439 C-569.06319648 175.78480899 -569.06319648 175.78480899 -564.82080603 170.82916439 C-561.13900473 166.36637494 -556.59747366 162.78338995 -552.07080603 159.20416439 C-549.6186639 157.28978897 -549.6186639 157.28978897 -547.13330603 154.64166439 C-544.75830603 152.32916439 -544.75830603 152.32916439 -541.75830603 151.32916439 C-541.42830603 150.33916439 -541.09830603 149.34916439 -540.75830603 148.32916439 C-538.32471228 146.28619564 -538.32471228 146.28619564 -535.32080603 144.14166439 C-534.33209509 143.4262347 -533.34338415 142.71080501 -532.32471228 141.97369564 C-529.75830603 140.32916439 -529.75830603 140.32916439 -527.75830603 140.32916439 C-527.75830603 139.66916439 -527.75830603 139.00916439 -527.75830603 138.32916439 C-525.95752478 136.88385189 -525.95752478 136.88385189 -523.44580603 135.20416439 C-519.62897034 132.61647918 -515.89239885 129.96094548 -512.19580603 127.20416439 C-508.19967095 124.27892587 -504.16797783 121.78636675 -499.79736853 119.46978939 C-497.86785773 118.39044618 -496.15103856 117.21536931 -494.38330603 115.89166439 C-490.61211779 113.10273913 -486.55021809 110.95343632 -482.41455603 108.75494564 C-480.15570117 107.54247207 -477.95627936 106.27201704 -475.75830603 104.95416439 C-472.75830603 103.32916439 -472.75830603 103.32916439 -469.75830603 103.32916439 C-469.75830603 102.66916439 -469.75830603 102.00916439 -469.75830603 101.32916439 C-468.39898962 100.65820735 -468.39898962 100.65820735 -467.01221228 99.97369564 C-460.89745167 96.94280618 -454.81719766 93.90970899 -448.91846228 90.46978939 C-446.62620757 89.25941258 -444.27689942 88.25362752 -441.88892126 87.24859798 C-438.35147156 85.72206703 -434.86763721 84.07995835 -431.37256384 82.45929134 C-421.91120186 78.07647635 -412.45799783 73.84398536 -402.7251029 70.09771907 C-400.45119284 69.20915541 -398.19072155 68.29026625 -395.93018103 67.36822689 C-387.11928175 63.78151879 -378.32748178 60.39557182 -369.27002478 57.47760189 C-365.71468677 56.31489958 -362.20808491 55.05307064 -358.69580603 53.76666439 C-352.96804338 51.703127 -347.20117477 49.97244954 -341.33643103 48.34478939 C-337.74354731 47.32497523 -334.19120754 46.21466487 -330.63330603 45.07916439 C-309.8998817 38.53900388 -288.99855205 32.95367842 -267.75830603 28.32916439 C-266.61861364 28.07924739 -265.47892126 27.8293304 -264.30469275 27.57184017 C-242.42685792 22.78464085 -220.53250209 18.01468606 -198.37256384 14.72369564 C-195.39189748 14.27386777 -192.41503804 13.80236059 -189.43799353 13.32916439 C-178.91455097 11.66514551 -168.4110664 10.0718052 -157.81177282 8.97735775 C-153.52257591 8.53443271 -149.27026707 7.98253106 -145.00830603 7.32916439 C-136.23873323 6.02654948 -127.40877442 5.33464522 -118.57739782 4.59454525 C-116.25805564 4.37620932 -113.94818997 4.12479744 -111.63405371 3.85901058 C-74.56271603 -0.26843727 -37.24349744 -0.12134155 0 0 Z M-42.50830603 116.64166439 C-43.80549063 116.6709251 -43.80549063 116.6709251 -45.12888098 116.70077693 C-61.41113278 117.08871752 -77.5711183 118.24292507 -93.78171301 119.77498043 C-99.08945286 120.27587758 -104.40005846 120.70189152 -109.71631384 121.10040462 C-132.22652992 122.79318732 -154.57981599 125.43354869 -176.90381384 128.76129329 C-180.38972238 129.27486203 -183.87716204 129.77444221 -187.36606359 130.26709163 C-190.41732804 130.69839305 -193.46782718 131.13496888 -196.51825476 131.57214534 C-197.98676326 131.78161217 -199.45554706 131.98915987 -200.92462683 132.19458187 C-208.71015617 133.28572964 -216.31923802 134.60748374 -223.9257865 136.621889 C-229.61335217 138.04206463 -235.41722168 138.86459089 -241.2016654 139.79010189 C-247.01643871 140.75461901 -252.63252868 142.01477749 -258.29639196 143.65167415 C-260.66900248 144.30458908 -263.02797757 144.81343986 -265.44580603 145.26666439 C-271.03495365 146.33915293 -276.53379715 147.73498983 -282.04736853 149.13775814 C-285.45406046 150.00444987 -288.86610431 150.84610054 -292.28174353 151.67682064 C-312.18865735 156.53836807 -331.75744083 162.30085668 -351.25830603 168.57916439 C-351.92524481 168.79367244 -352.59218359 169.0081805 -353.27933264 169.2291888 C-360.16685019 171.44936751 -367.0129855 173.70682629 -373.75830603 176.32916439 C-374.79213415 176.72877376 -375.82596228 177.12838314 -376.89111853 177.54010189 C-377.8785404 177.92424251 -378.86596228 178.30838314 -379.88330603 178.70416439 C-384.56612755 180.51318941 -389.27155672 182.22919838 -394.00830603 183.89166439 C-399.3922131 185.8013154 -404.58620046 187.91186637 -409.75830603 190.32916439 C-411.63255654 191.18497436 -413.5075919 192.03906706 -415.38330603 192.89166439 C-416.24182165 193.28482845 -417.10033728 193.67799251 -417.98486853 194.08307064 C-419.92963646 194.95684665 -421.88666974 195.80359004 -423.85205603 196.62994564 C-439.52759746 203.3234231 -454.81887302 211.13303861 -469.75830603 219.32916439 C-470.46584021 219.71467464 -471.17337439 220.10018489 -471.902349 220.49737728 C-477.3274551 223.47666178 -482.61967502 226.63688055 -487.88330603 229.89166439 C-493.12783525 233.12831357 -498.3891965 236.30280955 -503.75830603 239.32916439 C-503.75830603 239.98916439 -503.75830603 240.64916439 -503.75830603 241.32916439 C-504.35143591 241.44993343 -504.94456579 241.57070247 -505.55566931 241.69513118 C-509.05856446 242.70344627 -511.74202039 244.99621995 -514.63330603 247.14166439 C-515.83837083 248.0240828 -517.04409418 248.90560262 -518.25049353 249.78619564 C-518.83282751 250.21497005 -519.4151615 250.64374446 -520.01514196 251.08551204 C-521.71093472 252.29536755 -523.44408742 253.41408232 -525.20361853 254.52838314 C-526.0466654 255.12264095 -526.88971228 255.71689876 -527.75830603 256.32916439 C-527.75830603 256.98916439 -527.75830603 257.64916439 -527.75830603 258.32916439 C-528.74830603 258.32916439 -529.73830603 258.32916439 -530.75830603 258.32916439 C-532.45914975 259.96093832 -534.12041 261.63421537 -535.75830603 263.32916439 C-537.75329963 264.8837389 -539.77503944 266.40453949 -541.82080603 267.89166439 C-545.39949279 270.49557644 -548.82204774 272.99858844 -551.75830603 276.32916439 C-551.75830603 276.98916439 -551.75830603 277.64916439 -551.75830603 278.32916439 C-552.35159704 278.59793392 -552.94488806 278.86670345 -553.55615759 279.14361751 C-555.76370636 280.33207171 -557.22373484 281.53658828 -558.99268103 283.29791439 C-559.56631384 283.86896907 -560.13994665 284.44002376 -560.73096228 285.02838314 C-561.31748571 285.62264095 -561.90400915 286.21689876 -562.50830603 286.82916439 C-563.11029821 287.4234222 -563.7122904 288.01768001 -564.33252478 288.62994564 C-564.90100134 289.20100032 -565.4694779 289.77205501 -566.05518103 290.36041439 C-566.57435095 290.88184017 -567.09352087 291.40326595 -567.62842321 291.94049251 C-568.9686815 293.28934707 -568.9686815 293.28934707 -568.75830603 295.32916439 C-569.74830603 295.65916439 -570.73830603 295.98916439 -571.75830603 296.32916439 C-585.43416509 309.54361333 -607.54028851 336.64967266 -610.14893103 356.26666439 C-609.65092132 360.17106048 -608.19488326 363.26735817 -606.38330603 366.70416439 C-606.02607458 367.39751888 -605.66884314 368.09087337 -605.3007865 368.8052386 C-599.76960808 379.342288 -593.30194917 389.30013108 -586.44580603 399.01666439 C-586.04958044 399.58079036 -585.65335485 400.14491634 -585.24512243 400.72613704 C-582.68937977 404.27583927 -579.86802921 407.26537507 -576.75830603 410.32916439 C-575.67993867 411.55650881 -574.61037896 412.79162049 -573.54736853 414.03228939 C-569.29558188 418.93554091 -564.73137557 423.50264829 -560.13330603 428.07916439 C-559.30057165 428.91576595 -558.46783728 429.75236751 -557.60986853 430.61432064 C-556.39557165 431.82668392 -556.39557165 431.82668392 -555.15674353 433.06353939 C-554.06885534 434.14973567 -554.06885534 434.14973567 -552.95898962 435.25787532 C-550.73419388 437.41180647 -550.73419388 437.41180647 -548.04590368 439.47076595 C-545.75830603 441.32916439 -545.75830603 441.32916439 -544.75830603 443.32916439 C-543.76830603 443.65916439 -542.77830603 443.98916439 -541.75830603 444.32916439 C-540.63846591 445.4490045 -539.5227199 446.57329797 -538.43018103 447.71978939 C-534.79965758 451.21459233 -530.72348422 454.2263162 -526.75830603 457.32916439 C-526.09830603 456.99916439 -525.43830603 456.66916439 -524.75830603 456.32916439 C-524.75830603 455.66916439 -524.75830603 455.00916439 -524.75830603 454.32916439 C-524.05963415 454.08553157 -523.36096228 453.84189876 -522.64111853 453.59088314 C-519.29926417 452.12825582 -516.60227429 450.26079284 -513.63330603 448.14166439 C-508.61070396 444.59339756 -503.51629739 441.21459539 -498.30518103 437.94635189 C-495.9210296 436.43248887 -493.5886879 434.86157113 -491.25830603 433.26666439 C-486.27878617 429.92932661 -481.04773551 427.1393939 -475.75830603 424.32916439 C-474.25977087 423.51125423 -474.25977087 423.51125423 -472.73096228 422.67682064 C-464.78825996 418.34711517 -456.73583305 414.27208107 -448.63037634 410.25934017 C-445.93704333 408.9211035 -443.25507785 407.56046532 -440.57080603 406.20416439 C-429.60630169 400.73664946 -418.44392236 395.86030859 -407.089849 391.27203548 C-404.66618713 390.2919117 -402.24551398 389.30461003 -399.82471228 388.31744564 C-390.46974706 384.52083466 -381.07462405 380.93391264 -371.53174353 377.63775814 C-368.27910133 376.50977145 -365.04815582 375.33949029 -361.82080603 374.14166439 C-357.7084814 372.63670221 -353.5676238 371.33738005 -349.36377478 370.11432064 C-345.47870745 368.94355822 -341.64855911 367.61680014 -337.81299353 366.29400814 C-335.49280809 365.56116184 -333.21945869 364.93067889 -330.85986853 364.35650814 C-326.93054951 363.39860287 -323.10630999 362.20238055 -319.25830603 360.95416439 C-311.95807911 358.63329774 -304.5917643 356.70686132 -297.14600134 354.9121722 C-294.39568867 354.24062346 -291.65118169 353.54776533 -288.90674353 352.85260189 C-279.354189 350.43486907 -269.81632401 348.0313647 -260.16455603 346.04010189 C-256.8348103 345.34513202 -253.51853399 344.60407327 -250.20117712 343.85284603 C-236.09655564 340.66615832 -221.90440397 338.12142321 -207.63428259 335.79889095 C-204.2659576 335.24875026 -200.89894305 334.69083881 -197.53174353 334.13385189 C-177.30689809 330.80727293 -157.09408398 327.78265595 -136.667974 325.97491634 C-133.23960594 325.67144507 -129.85097041 325.34304219 -126.44580603 324.83307064 C-121.06815873 324.09820146 -115.67143775 323.76680123 -110.25830603 323.39166439 C-97.74234679 322.51933995 -85.26174745 321.41642016 -72.75830603 320.32916439 C-45.36830603 319.66916439 -17.97830603 319.00916439 10.24169397 318.32916439 C10.24169397 251.66916439 10.24169397 185.00916439 10.24169397 116.32916439 C-16.13705973 116.28063368 -16.13705973 116.28063368 -42.50830603 116.64166439 Z M-533.07080603 576.84869564 C-533.67150915 577.37656673 -534.27221228 577.90443782 -534.89111853 578.44830501 C-535.5072904 579.0071136 -536.12346228 579.5659222 -536.75830603 580.14166439 C-537.98660479 581.2324862 -539.21574865 582.32235729 -540.44580603 583.41119564 C-541.30432165 584.18004085 -541.30432165 584.18004085 -542.18018103 584.96441829 C-543.75830603 586.32916439 -543.75830603 586.32916439 -546.19580603 588.09088314 C-546.71143103 588.49951595 -547.22705603 588.90814876 -547.75830603 589.32916439 C-547.75830603 589.98916439 -547.75830603 590.64916439 -547.75830603 591.32916439 C-548.29455603 591.55603939 -548.83080603 591.78291439 -549.38330603 592.01666439 C-553.78439616 594.44884577 -557.0670247 597.49962679 -560.25830603 601.32916439 C-562.39938427 603.89845827 -564.53598331 605.82687774 -567.13330603 607.90338314 C-570.3301248 610.70828422 -573.21589783 613.92173564 -575.75830603 617.32916439 C-575.75830603 617.98916439 -575.75830603 618.64916439 -575.75830603 619.32916439 C-576.41830603 619.32916439 -577.07830603 619.32916439 -577.75830603 619.32916439 C-579.34656824 621.0441421 -579.34656824 621.0441421 -580.88330603 623.20416439 C-581.69154821 624.2831097 -581.69154821 624.2831097 -582.51611853 625.38385189 C-583.93770234 627.22542445 -583.93770234 627.22542445 -583.75830603 629.32916439 C-584.41830603 629.32916439 -585.07830603 629.32916439 -585.75830603 629.32916439 C-586.08830603 630.64916439 -586.41830603 631.96916439 -586.75830603 633.32916439 C-587.41830603 633.32916439 -588.07830603 633.32916439 -588.75830603 633.32916439 C-590.12468256 635.0471772 -590.12468256 635.0471772 -591.38330603 637.20416439 C-591.82932165 637.92346126 -592.27533728 638.64275814 -592.73486853 639.38385189 C-593.91350601 641.25781201 -593.91350601 641.25781201 -593.75830603 643.32916439 C-594.41830603 643.32916439 -595.07830603 643.32916439 -595.75830603 643.32916439 C-599.34122191 649.73498369 -602.76474868 656.21444204 -606.07080603 662.76666439 C-606.42014196 663.45244564 -606.7694779 664.13822689 -607.12939978 664.84478939 C-609.44422904 669.4181169 -609.44422904 669.4181169 -610.75830603 674.32916439 C-609.85581138 676.77879272 -608.90505905 678.9997475 -607.75830603 681.32916439 C-607.46504431 681.95113704 -607.17178259 682.5731097 -606.86963415 683.21393001 C-601.01733414 695.53522402 -594.20031516 706.65752018 -585.90674353 717.51275814 C-583.5267417 720.63272417 -581.2285976 723.8067044 -578.94971228 727.00103939 C-578.55654821 727.43932064 -578.16338415 727.87760189 -577.75830603 728.32916439 C-577.09830603 728.32916439 -576.43830603 728.32916439 -575.75830603 728.32916439 C-575.49018103 728.91182064 -575.22205603 729.49447689 -574.94580603 730.09478939 C-573.74349612 732.35703039 -572.4200469 734.13492756 -570.75830603 736.07916439 C-569.98486853 736.99955501 -569.98486853 736.99955501 -569.19580603 737.93853939 C-567.85207351 739.56092815 -567.85207351 739.56092815 -565.75830603 739.32916439 C-565.42830603 740.31916439 -565.09830603 741.30916439 -564.75830603 742.32916439 C-562.88322441 744.53774099 -562.88322441 744.53774099 -560.75830603 746.32916439 C-560.09830603 746.32916439 -559.43830603 746.32916439 -558.75830603 746.32916439 C-558.42830603 747.31916439 -558.09830603 748.30916439 -557.75830603 749.32916439 C-556.11863393 750.6955578 -554.44720475 752.02410628 -552.75830603 753.32916439 C-551.45893103 754.65947689 -551.45893103 754.65947689 -550.13330603 756.01666439 C-547.90481757 758.52213232 -547.90481757 758.52213232 -544.75830603 759.32916439 C-544.42830603 760.31916439 -544.09830603 761.30916439 -543.75830603 762.32916439 C-541.85364117 763.96510908 -539.96149099 765.46765068 -537.94580603 766.95416439 C-537.36919226 767.38712825 -536.79257849 767.82009212 -536.19849157 768.2661761 C-534.99360072 769.17013155 -533.78660951 770.07129349 -532.57764196 770.96978939 C-530.80581 772.29367028 -529.04965312 773.63580379 -527.29736853 774.98541439 C-526.22198383 775.80850895 -525.14646851 776.63143288 -524.07080603 777.45416439 C-523.09756384 778.19924251 -522.12432165 778.94432064 -521.12158728 779.71197689 C-518.96048692 781.51740866 -518.96048692 781.51740866 -516.75830603 781.32916439 C-516.75830603 781.98916439 -516.75830603 782.64916439 -516.75830603 783.32916439 C-515.11861853 784.28822689 -515.11861853 784.28822689 -513.44580603 785.26666439 C-512.83092321 785.62631282 -512.2160404 785.98596126 -511.58252478 786.35650814 C-509.62011047 787.46817686 -509.62011047 787.46817686 -506.75830603 788.32916439 C-506.75830603 788.98916439 -506.75830603 789.64916439 -506.75830603 790.32916439 C-506.20143103 790.63209407 -505.64455603 790.93502376 -505.07080603 791.24713314 C-498.85121401 794.66160511 -492.79060564 798.24024687 -486.94580603 802.26666439 C-478.43332048 807.77474327 -469.21225669 812.22861266 -460.24658728 816.95416439 C-457.23546215 818.54291265 -454.23398536 820.14812236 -451.23877478 821.76666439 C-441.28153523 827.1446911 -441.28153523 827.1446911 -430.83643103 831.47760189 C-428.75830603 832.32916439 -428.75830603 832.32916439 -426.37549353 833.78228939 C-423.53241838 835.4626741 -420.73298134 836.56939382 -417.63330603 837.70416439 C-413.49174258 839.25783041 -409.4479966 840.88363675 -405.44580603 842.76666439 C-394.30585478 847.92554195 -382.56815293 851.7909451 -370.98877478 855.83697689 C-367.81025281 856.94915424 -364.64892936 858.10337914 -361.48877478 859.26666439 C-338.63908044 867.59176209 -315.1679294 874.07883321 -291.57080603 879.88385189 C-286.24084655 881.19873951 -280.93594565 882.59629521 -275.63330603 884.01666439 C-269.24467041 885.7167697 -262.84956034 887.2570124 -256.37158728 888.58697689 C-253.7584868 889.12372185 -251.15495111 889.67999622 -248.55127478 890.25885189 C-239.16309164 892.3256685 -229.75090643 894.05830324 -220.25830603 895.57916439 C-218.61898108 895.84201229 -218.61898108 895.84201229 -216.94653845 896.11017025 C-211.37759649 897.01452898 -211.37759649 897.01452898 -205.75830603 897.32916439 C-205.75830603 830.99916439 -205.75830603 764.66916439 -205.75830603 696.32916439 C-209.05830603 695.66916439 -212.35830603 695.00916439 -215.75830603 694.32916439 C-218.02320232 693.86450256 -220.28758661 693.39733279 -222.55127478 692.92682064 C-223.7503446 692.67803157 -224.94941442 692.42924251 -226.1848197 692.17291439 C-228.09112259 691.77692807 -229.99742532 691.38094097 -231.90372229 690.9849261 C-238.74473277 689.56447283 -245.58586316 688.15510242 -252.44580603 686.82916439 C-268.42149531 683.64899205 -284.30302773 679.9252646 -299.95361853 675.40728939 C-303.13515003 674.50574658 -306.32459063 673.69213727 -309.53467321 672.90094173 C-314.15937386 671.71176201 -318.73754457 670.3551101 -323.32080603 669.01666439 C-324.38347692 668.70688655 -325.44614782 668.39710872 -326.54102087 668.07794368 C-333.55087582 666.01844595 -340.48011088 663.80890727 -347.39111853 661.43853939 C-350.82275261 660.30793141 -354.2719945 659.33894725 -357.75830603 658.39166439 C-363.31921503 656.83760564 -368.60139163 654.8888129 -373.93530798 652.68316829 C-378.72010844 650.71248452 -383.55520627 648.95625327 -388.44580603 647.26666439 C-395.33596539 644.87536469 -402.05434529 642.20493237 -408.75830603 639.32916439 C-410.79976733 638.49532808 -412.84143564 637.66199843 -414.88330603 636.82916439 C-419.48903918 634.91610595 -423.91615076 632.77514272 -428.35205603 630.50103939 C-430.66469795 629.37475273 -432.97975208 628.43001488 -435.38330603 627.51666439 C-447.29364957 622.87967035 -458.56288546 616.43969716 -469.75830603 610.32916439 C-470.72639196 609.81482845 -471.6944779 609.30049251 -472.69189978 608.77057064 C-477.8563476 606.01285578 -482.74971537 603.07081457 -487.57861853 599.76275814 C-489.7551884 598.33121487 -491.96807625 597.06937532 -494.25830603 595.82916439 C-498.96008779 593.26455615 -503.34534483 590.35914629 -507.75830603 587.32916439 C-509.10973581 586.40969846 -510.46131109 585.49044636 -511.81299353 584.57135189 C-513.27419504 583.57434287 -514.73513061 582.576944 -516.19580603 581.57916439 C-516.90680456 581.09496028 -517.6178031 580.61075618 -518.35034704 580.11187923 C-519.01993444 579.65248958 -519.68952185 579.19309993 -520.37939978 578.71978939 C-520.98195593 578.30761165 -521.58451208 577.89543392 -522.20532751 577.47076595 C-523.75830603 576.32916439 -523.75830603 576.32916439 -525.75830603 574.32916439 C-530.08065988 574.31702901 -530.08065988 574.31702901 -533.07080603 576.84869564 Z " fill="#10284E" transform="translate(623.7583060264587,-0.32916438579559326)"/>
</svg>
