<?xml version="1.0" encoding="UTF-8"?>
<svg version="1.1" xmlns="http://www.w3.org/2000/svg" width="1024" height="1024">
<path d="M0 0 C2.07845916 -0.00072061 4.1569121 -0.00287363 6.23536968 -0.00549722 C13.54492632 -0.01470053 20.85446497 -0.01883895 28.16402721 -0.01804566 C34.88144803 -0.01744807 41.59878773 -0.02795011 48.3161881 -0.04378933 C54.15986276 -0.05705651 60.00351158 -0.06222162 65.84720111 -0.06159025 C69.30312234 -0.06134055 72.75897148 -0.06388629 76.21487713 -0.0747683 C80.09610284 -0.08483497 83.97713264 -0.08158832 87.85836315 -0.07566285 C88.93782207 -0.08128236 90.017281 -0.08690187 91.1294508 -0.09269166 C105.1298563 -0.03974217 118.8721373 1.23126128 132.91207409 2.16725707 C132.91207409 145.38725707 132.91207409 288.60725707 132.91207409 436.16725707 C106.91207409 435.16725707 106.91207409 435.16725707 96.62691784 434.61647582 C79.31882328 433.78467154 61.96366217 433.98016316 44.64034557 433.98195434 C40.56022177 433.982035 36.48021168 433.97517565 32.4001112 433.96144652 C5.1743026 433.87138344 -21.91550929 434.41111048 -49.08792591 436.16725707 C-50.26144611 436.24295928 -51.43496632 436.31866149 -52.64404774 436.39665771 C-59.13226528 436.83011543 -65.61063423 437.34442467 -72.08792591 437.91725707 C-73.51268238 438.04081069 -73.51268238 438.04081069 -74.96622181 438.16686034 C-157.42736577 445.37651794 -239.34202517 460.43207591 -318.08792591 486.16725707 C-319.3940692 486.5911131 -320.70022121 487.01494225 -322.00638294 487.43874145 C-345.42842277 495.09505766 -368.65183518 503.95531443 -391.08792591 514.16725707 C-381.45666723 519.20143902 -371.75412759 523.4734514 -361.58792591 527.29225707 C-360.5072736 527.70128768 -360.5072736 527.70128768 -359.40478992 528.11858153 C-330.05754609 539.21411299 -300.40308807 549.0734468 -270.08792591 557.16725707 C-268.95341999 557.4718283 -268.95341999 557.4718283 -267.79599476 557.78255248 C-207.93848589 573.82574498 -145.87842987 585.28812484 -84.02591419 589.92555785 C-82.08792591 590.16725707 -82.08792591 590.16725707 -80.08792591 591.16725707 C-80.08792591 734.05725707 -80.08792591 876.94725707 -80.08792591 1024.16725707 C-86.98133099 1024.16725707 -93.39298429 1024.09213308 -100.16214466 1023.28444457 C-100.99168659 1023.19000564 -101.82122852 1023.0955667 -102.67590809 1022.99826598 C-105.37674216 1022.68752466 -108.07612457 1022.36602816 -110.77542591 1022.04225707 C-111.71554523 1021.93088408 -112.65566456 1021.8195111 -113.62427235 1021.70476317 C-158.53834032 1016.36508401 -203.11344911 1008.8145438 -247.08792591 998.16725707 C-248.17986256 997.90425811 -248.17986256 997.90425811 -249.29385853 997.63594604 C-274.58094727 991.53594909 -299.39827698 984.35000329 -324.08792591 976.16725707 C-325.3184972 975.76120238 -326.54906849 975.3551477 -327.81692982 974.93678832 C-397.27556674 951.8724669 -467.25427725 918.98724278 -521.32230091 868.71022582 C-523.51579984 866.69332214 -525.73848705 864.76214095 -528.02542591 862.85475707 C-553.86304279 840.34065108 -575.49130102 807.7878692 -585.46292591 775.04225707 C-585.68931751 774.30475219 -585.91570911 773.5672473 -586.14896107 772.80739379 C-590.15780845 758.78696963 -591.64455234 744.93999268 -591.52542591 730.41725707 C-591.52271687 729.63621612 -591.52000782 728.85517516 -591.51721668 728.0504663 C-591.42782896 710.99133009 -589.1930011 695.33856327 -582.94339466 679.39381957 C-581.11791948 672.50869399 -583.94738994 665.91370625 -586.09573841 659.36256957 C-590.37495134 645.58559137 -591.64476138 631.76015307 -591.52542591 617.41725707 C-591.52238453 616.63521911 -591.51934315 615.85318114 -591.5162096 615.04744506 C-591.44375805 602.39997947 -590.53039985 590.3964652 -587.08792591 578.16725707 C-586.88957142 577.43055785 -586.69121693 576.69385863 -586.48685169 575.9348352 C-580.98675009 556.03470626 -571.25550279 537.60294919 -559.24197865 520.90871215 C-558.0170094 519.06024469 -557.0407852 517.16763054 -556.08792591 515.16725707 C-556.70538685 514.27006957 -557.32284779 513.37288207 -557.95901966 512.44850707 C-569.56055852 495.42814719 -579.25064633 477.97951261 -585.33792591 458.22975707 C-585.57213245 457.48048949 -585.806339 456.73122191 -586.04764271 455.95924926 C-589.92609065 442.74832942 -591.59802806 429.59144496 -591.47903919 415.86501098 C-591.46292368 413.66695217 -591.47902855 411.47073067 -591.49808216 409.27272582 C-591.52058769 395.18984219 -589.30207762 381.77560066 -584.96292591 368.35475707 C-584.43891588 366.6817592 -583.9154564 365.00858878 -583.39261341 363.33522582 C-583.16557728 362.62648314 -582.93854115 361.91774047 -582.70462513 361.18752074 C-582.50111439 360.52083373 -582.29760365 359.85414672 -582.08792591 359.16725707 C-581.76574085 358.1680725 -581.76574085 358.1680725 -581.437047 357.14870238 C-581.02007548 354.78217028 -581.37734853 353.54157567 -582.19730091 351.29616332 C-582.45616077 350.56317016 -582.71502064 349.83017699 -582.98172474 349.07497191 C-583.26427113 348.30105102 -583.54681751 347.52713012 -583.83792591 346.72975707 C-589.10793746 331.64174594 -591.28768846 317.49155102 -591.32816029 301.54396605 C-591.33777163 299.26631835 -591.3688189 296.9896122 -591.40042591 294.71217895 C-591.50039485 280.94432238 -589.5720104 267.67361357 -585.52542591 254.47975707 C-585.27567005 253.66216918 -585.02591419 252.84458129 -584.76858997 252.00221801 C-577.94284409 230.65257733 -566.92917967 211.68317997 -553.08792591 194.16725707 C-552.3699181 193.25588988 -551.65191029 192.3445227 -550.91214466 191.40553832 C-539.88358319 177.673706 -527.64517925 164.43908145 -514.08792591 153.16725707 C-513.55634876 152.72188598 -513.02477161 152.27651488 -512.47708607 151.8176477 C-463.25208144 110.69262356 -405.08224007 81.96372305 -345.08792591 60.16725707 C-344.35120655 59.89913207 -343.61448719 59.63100707 -342.855443 59.35475707 C-256.53519242 28.02633547 -165.15704423 10.79381606 -47.40229893 1.32517028 C-45.36692146 1.18629336 -43.33198926 1.04092276 -41.29713917 0.89452147 C-27.5358959 0.00573209 -13.78581997 0.00269753 0 0 Z M-13.96292591 116.91725707 C-15.59655582 116.98111098 -15.59655582 116.98111098 -17.26318836 117.04625487 C-86.73688154 119.82209956 -156.14928146 128.30760223 -224.08792591 143.16725707 C-224.8672649 143.33743346 -225.64660389 143.50760985 -226.44955921 143.68294311 C-275.7759863 154.50285954 -324.33312621 169.03716117 -371.08792591 188.16725707 C-371.70029102 188.41757689 -372.31265614 188.66789672 -372.94357777 188.92580199 C-425.51139699 210.48337495 -476.47940979 238.14441964 -518.50589466 276.80397582 C-521.43710979 279.48685805 -524.42251152 282.09983407 -527.43167591 284.69460082 C-529.84744873 286.84226749 -529.84744873 286.84226749 -532.08792591 289.16725707 C-532.08792591 289.82725707 -532.08792591 290.48725707 -532.08792591 291.16725707 C-532.74792591 291.16725707 -533.40792591 291.16725707 -534.08792591 291.16725707 C-535.52492813 292.50981107 -535.52492813 292.50981107 -537.02542591 294.35475707 C-539.15820084 296.88249032 -541.29161413 299.39401677 -543.50198841 301.85475707 C-555.00603992 314.77056118 -564.33259905 329.40786647 -572.52542591 344.60475707 C-573.24375599 345.90896605 -573.24375599 345.90896605 -573.97659779 347.2395227 C-575.82022954 350.7794069 -577.08792591 353.27383189 -577.08792591 357.30397582 C-575.84821744 360.85360984 -574.36737184 364.20423319 -572.65042591 367.54225707 C-572.29698109 368.23561156 -571.94353626 368.92896605 -571.57938099 369.64333129 C-564.74053879 382.81014453 -556.58289802 394.78651298 -547.08792591 406.16725707 C-546.33189075 407.07773803 -546.33189075 407.07773803 -545.56058216 408.00661254 C-535.31380912 420.27527066 -524.47157607 432.00720026 -511.89651966 441.92897582 C-509.76604576 443.62683611 -507.6874959 445.34903992 -505.62308216 447.12428832 C-505.03535023 447.62935912 -504.44761829 448.13442992 -503.8420763 448.6548059 C-502.69664244 449.6424138 -501.55377729 450.63301099 -500.41385365 451.62697387 C-497.9696507 453.72508828 -496.17787055 455.13727553 -493.08792591 456.16725707 C-491.36680509 455.32135051 -491.36680509 455.32135051 -489.66605091 453.91335082 C-488.98260609 453.39579223 -488.29916126 452.87823363 -487.59500599 452.34499145 C-486.85016956 451.7707141 -486.10533314 451.19643676 -485.33792591 450.60475707 C-474.70788739 442.67969824 -463.52260657 435.86082096 -452.08792591 429.16725707 C-451.13724232 428.6100598 -450.18655872 428.05286254 -449.20706654 427.47878051 C-414.56403098 407.288127 -377.92456187 390.94195451 -340.04263783 377.84444213 C-338.02326209 377.14485511 -336.0061738 376.43894377 -333.9892931 375.73219848 C-252.56449214 347.28004324 -167.47986035 331.48168554 -81.74789906 323.41792846 C-79.24481591 323.18204212 -76.74228439 322.94094455 -74.23978138 322.69899535 C-49.50973219 320.33802251 -24.73021466 319.51590966 0.09200573 318.81300902 C1.38303204 318.77634627 2.67405834 318.73968352 4.00420666 318.70190978 C6.39909737 318.63511261 8.79405204 318.57054412 11.18908215 318.50894713 C21.44657469 318.22920576 31.65303838 317.68020886 41.91207409 317.16725707 C41.91207409 250.83725707 41.91207409 184.50725707 41.91207409 116.16725707 C23.24088531 116.16725707 4.6762378 116.17055157 -13.96292591 116.91725707 Z M-505.46097279 581.79909301 C-507.05017348 583.13550968 -508.65340647 584.45315296 -510.25980091 585.76881957 C-524.40678299 597.48254599 -538.00169563 610.48942036 -549.08792591 625.16725707 C-550.01106341 626.32848117 -550.93565076 627.48855356 -551.86136341 628.64772582 C-559.59103768 638.46938768 -565.95686857 648.85278363 -571.82718372 659.87917113 C-572.88774466 661.80395368 -574.06554231 663.66346568 -575.26761341 665.50319457 C-577.42715763 669.19198541 -578.64776538 671.91547034 -577.58206654 676.20192504 C-575.4573672 682.22584113 -572.32290355 687.68246546 -569.08792591 693.16725707 C-568.62047962 693.97711059 -568.15303333 694.7869641 -567.671422 695.62135863 C-560.84435707 707.33499125 -552.92663124 717.90842403 -544.08792591 728.16725707 C-543.37765247 729.00772582 -542.66737904 729.84819457 -541.93558216 730.71413207 C-530.77956823 743.52697976 -518.53450563 755.78120577 -505.08792591 766.16725707 C-504.11726185 766.98967895 -503.14659779 767.81210082 -502.14651966 768.65944457 C-484.28901535 783.72069895 -463.84633842 796.65811554 -443.40140247 807.89430785 C-440.90003784 809.27063913 -438.41219507 810.66985673 -435.92386341 812.06960082 C-358.32122171 855.40960025 -270.97198026 879.6747127 -184.05667591 895.76881957 C-183.29007145 895.91202132 -182.52346699 896.05522307 -181.73363209 896.20276427 C-178.80482711 896.73687685 -176.07218323 897.16725707 -173.08792591 897.16725707 C-173.08792591 830.83725707 -173.08792591 764.50725707 -173.08792591 696.16725707 C-191.23792591 692.53725707 -209.38792591 688.90725707 -228.08792591 685.16725707 C-266.10081052 676.76440889 -303.35429021 666.04928288 -340.08792591 653.16725707 C-341.92894886 652.52192016 -341.92894886 652.52192016 -343.80716419 651.86354613 C-395.89630199 633.4283519 -447.93830481 609.04011753 -492.11917591 575.49538207 C-497.19551531 572.0708674 -501.62047495 578.55356902 -505.46097279 581.79909301 Z " fill="#FEFEFE" transform="translate(591.0879259109497,-0.16725707054138184)"/>
</svg>
